<svg width="18" height="12" viewBox="0 0 18 12" fill="none" xmlns="http://www.w3.org/2000/svg">
<path fill-rule="evenodd" clip-rule="evenodd" d="M14.6232 1.40583C14.6001 1.52175 14.6001 1.66115 14.6001 1.93994V9.63994C14.6001 9.91873 14.6001 10.0581 14.6232 10.174C14.7178 10.6501 15.09 11.0222 15.566 11.1169C15.6819 11.1399 15.8213 11.1399 16.1001 11.1399C16.3789 11.1399 16.5183 11.1399 16.6342 11.1169C17.1102 11.0222 17.4824 10.6501 17.577 10.174C17.6001 10.0581 17.6001 9.91873 17.6001 9.63994V1.93994C17.6001 1.66115 17.6001 1.52175 17.577 1.40583C17.4824 0.929804 17.1102 0.557687 16.6342 0.462999C16.5183 0.439941 16.3789 0.439941 16.1001 0.439941C15.8213 0.439941 15.6819 0.439941 15.566 0.462999C15.09 0.557687 14.7178 0.929804 14.6232 1.40583ZM9.89999 4.33994C9.89999 4.06115 9.89999 3.92175 9.92305 3.80583C10.0177 3.32981 10.3899 2.95769 10.8659 2.863C10.9818 2.83994 11.1212 2.83994 11.4 2.83994C11.6788 2.83994 11.8182 2.83994 11.9341 2.863C12.4101 2.95769 12.7822 3.32981 12.8769 3.80583C12.9 3.92175 12.9 4.06115 12.9 4.33994V9.63995C12.9 9.91874 12.9 10.0581 12.8769 10.1741C12.7822 10.6501 12.4101 11.0222 11.9341 11.1169C11.8182 11.1399 11.6788 11.1399 11.4 11.1399C11.1212 11.1399 10.9818 11.1399 10.8659 11.1169C10.3899 11.0222 10.0177 10.6501 9.92305 10.1741C9.89999 10.0581 9.89999 9.91874 9.89999 9.63995V4.33994ZM5.32286 6.10585C5.2998 6.22176 5.2998 6.36116 5.2998 6.63995V9.63995C5.2998 9.91875 5.2998 10.0581 5.32286 10.1741C5.41755 10.6501 5.78967 11.0222 6.2657 11.1169C6.38162 11.14 6.52101 11.14 6.7998 11.14C7.0786 11.14 7.21799 11.14 7.33391 11.1169C7.80994 11.0222 8.18206 10.6501 8.27675 10.1741C8.2998 10.0581 8.2998 9.91875 8.2998 9.63995V6.63995C8.2998 6.36116 8.2998 6.22176 8.27675 6.10585C8.18206 5.62982 7.80994 5.2577 7.33391 5.16301C7.21799 5.13995 7.0786 5.13995 6.7998 5.13995C6.52101 5.13995 6.38162 5.13995 6.2657 5.16301C5.78967 5.2577 5.41755 5.62982 5.32286 6.10585ZM0.523058 8.10584C0.5 8.22176 0.5 8.36115 0.5 8.63995V9.63995C0.5 9.91874 0.5 10.0581 0.523058 10.1741C0.617746 10.6501 0.989863 11.0222 1.46589 11.1169C1.58181 11.1399 1.72121 11.1399 2 11.1399C2.27879 11.1399 2.41819 11.1399 2.53411 11.1169C3.01014 11.0222 3.38225 10.6501 3.47694 10.1741C3.5 10.0581 3.5 9.91874 3.5 9.63995V8.63995C3.5 8.36115 3.5 8.22176 3.47694 8.10584C3.38225 7.62981 3.01014 7.25769 2.53411 7.163C2.41819 7.13995 2.27879 7.13995 2 7.13995C1.72121 7.13995 1.58181 7.13995 1.46589 7.163C0.989863 7.25769 0.617746 7.62981 0.523058 8.10584Z" fill="white"/>
</svg>
