<svg width="25" height="24" viewBox="0 0 25 24" fill="none" xmlns="http://www.w3.org/2000/svg">
<path d="M24.5 12.2737C24.501 11.4559 24.4305 10.6396 24.2891 9.83374H12.7429V14.4553H19.356C19.2207 15.1934 18.9343 15.897 18.514 16.5237C18.0938 17.1504 17.5484 17.6872 16.9107 18.1018V21.1017H20.8575C23.1685 19.0134 24.5 15.9252 24.5 12.2737Z" fill="#4285F4"/>
<path d="M12.7428 23.9999C16.0469 23.9999 18.8288 22.9366 20.8575 21.1033L16.9107 18.1034C15.8122 18.8334 14.3974 19.25 12.7428 19.25C9.54933 19.25 6.83877 17.1401 5.86949 14.2969H1.80365V17.3884C2.82269 19.3758 4.38528 21.0465 6.31696 22.214C8.24864 23.3815 10.4734 23.9998 12.7428 23.9999Z" fill="#34A853"/>
<path d="M5.86955 14.297C5.35713 12.8071 5.35713 11.1937 5.86955 9.70381V6.61224H1.80371C0.946457 8.28411 0.5 10.1293 0.5 12.0004C0.5 13.8715 0.946457 15.7167 1.80371 17.3886L5.86955 14.297Z" fill="#FBBC04"/>
<path d="M12.7428 4.75063C14.4889 4.72267 16.176 5.36924 17.4396 6.55057L20.934 3.12568C18.7182 1.08588 15.7826 -0.03401 12.7428 0.000787286C10.4734 0.000888658 8.24864 0.619191 6.31696 1.78667C4.38528 2.95414 2.82269 4.62484 1.80365 6.61224L5.86949 9.7038C6.83877 6.86056 9.54933 4.75063 12.7428 4.75063Z" fill="#EA4335"/>
</svg>
