<svg width="311" height="52" viewBox="0 0 311 52" fill="none" xmlns="http://www.w3.org/2000/svg">
<path d="M310.25 25.9221C310.25 27.328 309.372 28.836 307.375 30.42C305.389 31.9947 302.414 33.5467 298.511 35.0442C290.713 38.0361 279.386 40.745 265.335 43.0251C237.246 47.5834 198.413 50.4063 155.5 50.4063C112.587 50.4063 73.7544 47.5834 45.665 43.0251C31.6144 40.745 20.2867 38.0361 12.4886 35.0442C8.5856 33.5467 5.61084 31.9947 3.62523 30.42C1.62785 28.836 0.75 27.328 0.75 25.9221C0.75 24.5162 1.62785 23.0082 3.62523 21.4242C5.61084 19.8495 8.5856 18.2975 12.4886 16.8C20.2867 13.8081 31.6144 11.0992 45.665 8.81912C73.7544 4.26084 112.587 1.43787 155.5 1.43787C198.413 1.43787 237.246 4.26084 265.335 8.81912C279.386 11.0992 290.713 13.8081 298.511 16.8C302.414 18.2975 305.389 19.8495 307.375 21.4242C309.372 23.0082 310.25 24.5162 310.25 25.9221Z" stroke="url(#paint0_linear_1_1138)" stroke-width="1.5"/>
<ellipse cx="39.2524" cy="42.2501" rx="2.01295" ry="1.97916" fill="#5B9EE1"/>
<ellipse cx="261.683" cy="44.2293" rx="2.01295" ry="1.97916" fill="#5B9EE1"/>
<defs>
<linearGradient id="paint0_linear_1_1138" x1="155" y1="0.999997" x2="154.835" y2="76.4996" gradientUnits="userSpaceOnUse">
<stop offset="0.15339" stop-color="#87C3FF" stop-opacity="0.07"/>
<stop offset="0.469544" stop-color="#5B9EE1"/>
<stop offset="1" stop-color="#5B9EE1"/>
</linearGradient>
</defs>
</svg>
