<svg width="56" height="56" viewBox="0 0 56 56" fill="none" xmlns="http://www.w3.org/2000/svg">
<path d="M0 24C0 16.5449 0 12.8174 1.21793 9.87706C2.84183 5.95662 5.95662 2.84183 9.87706 1.21793C12.8174 0 16.5449 0 24 0H32C39.4551 0 43.1826 0 46.1229 1.21793C50.0434 2.84183 53.1582 5.95662 54.7821 9.87706C56 12.8174 56 16.5449 56 24V32C56 39.4551 56 43.1826 54.7821 46.1229C53.1582 50.0434 50.0434 53.1582 46.1229 54.7821C43.1826 56 39.4551 56 32 56H24C16.5449 56 12.8174 56 9.87706 54.7821C5.95662 53.1582 2.84183 50.0434 1.21793 46.1229C0 43.1826 0 39.4551 0 32V24Z" fill="#F8F9FA"/>
</svg>
