<svg width="16" height="12" viewBox="0 0 16 12" fill="none" xmlns="http://www.w3.org/2000/svg">
<path fill-rule="evenodd" clip-rule="evenodd" d="M8.3004 2.53635C10.5348 2.53645 12.6838 3.395 14.3031 4.93456C14.4251 5.05342 14.62 5.05192 14.7401 4.9312L15.9058 3.75478C15.9666 3.69355 16.0005 3.61061 16 3.52432C15.9995 3.43802 15.9646 3.35549 15.9031 3.29497C11.6527 -0.778337 4.94737 -0.778337 0.697047 3.29497C0.635477 3.35544 0.600547 3.43795 0.599983 3.52425C0.599408 3.61054 0.633259 3.69351 0.694022 3.75478L1.86003 4.9312C1.98004 5.0521 2.17511 5.0536 2.29698 4.93456C3.91655 3.3949 6.06577 2.53635 8.3004 2.53635ZM8.3004 6.36374C9.52806 6.36366 10.7119 6.81998 11.6219 7.64401C11.745 7.76096 11.9389 7.75843 12.0589 7.6383L13.2232 6.46188C13.2845 6.40018 13.3185 6.31647 13.3177 6.22948C13.3168 6.1425 13.281 6.05949 13.2185 5.99905C10.4473 3.4213 6.15582 3.4213 3.38466 5.99905C3.32206 6.05949 3.28635 6.14254 3.28553 6.22955C3.2847 6.31656 3.31885 6.40027 3.38028 6.46188L4.54427 7.6383C4.66425 7.75843 4.85814 7.76096 4.98122 7.64401C5.89063 6.82052 7.07354 6.36425 8.3004 6.36374ZM10.5378 9.17134C10.6 9.11022 10.6343 9.02612 10.6325 8.9389C10.6308 8.85167 10.5931 8.76904 10.5283 8.71052C9.24212 7.62262 7.35832 7.62262 6.07209 8.71052C6.00733 8.76899 5.96957 8.85159 5.96772 8.93882C5.96588 9.02605 6.00011 9.11018 6.06234 9.17134L8.0767 11.2038C8.13574 11.2636 8.21623 11.2972 8.30022 11.2972C8.38421 11.2972 8.4647 11.2636 8.52374 11.2038L10.5378 9.17134Z" fill="white"/>
</svg>
